<?xml version="1.0" encoding="UTF-8" standalone="no"?>
<!DOCTYPE svg PUBLIC "-//W3C//DTD SVG 1.1//EN" "http://www.w3.org/Graphics/SVG/1.1/DTD/svg11.dtd">
<svg width="100%" height="100%" viewBox="0 0 24 24" version="1.1" xmlns="http://www.w3.org/2000/svg" xmlns:xlink="http://www.w3.org/1999/xlink" xml:space="preserve" xmlns:serif="http://www.serif.com/" style="fill-rule:evenodd;clip-rule:evenodd;stroke-linejoin:round;stroke-miterlimit:2;">
    <g>
        <rect x="0" y="0" width="24" height="24" style="fill:none;fill-rule:nonzero;"/>
    </g>
    <g>
        <path d="M6,19C6,20.1 6.9,21 8,21L16,21C17.1,21 18,20.1 18,19L18,7L6,7L6,19ZM9.17,12.59C8.78,12.2 8.78,11.57 9.17,11.18C9.56,10.79 10.19,10.79 10.58,11.18L12,12.59L13.41,11.18C13.8,10.79 14.43,10.79 14.82,11.18C15.21,11.57 15.21,12.2 14.82,12.59L13.41,14L14.82,15.41C15.21,15.8 15.21,16.43 14.82,16.82C14.43,17.21 13.8,17.21 13.41,16.82L12,15.41L10.59,16.82C10.2,17.21 9.57,17.21 9.18,16.82C8.79,16.43 8.79,15.8 9.18,15.41L10.59,14L9.17,12.59ZM18,4L15.5,4L14.79,3.29C14.61,3.11 14.35,3 14.09,3L9.91,3C9.65,3 9.39,3.11 9.21,3.29L8.5,4L6,4C5.45,4 5,4.45 5,5C5,5.55 5.45,6 6,6L18,6C18.55,6 19,5.55 19,5C19,4.45 18.55,4 18,4Z" style="fill:white;fill-rule:nonzero;"/>
    </g>
</svg>
